<svg xmlns="http://www.w3.org/2000/svg" viewBox="0 0 400 99.77"><defs><style>.cls-1{fill:#fefefe;}.cls-2{fill:#151515;}.cls-3{fill:#fca929;}</style></defs><g id="Layer_2" data-name="Layer 2"><g id="Layer_1-2" data-name="Layer 1"><path class="cls-1" d="M309.65,59.14h.1l.27.46q10.88,19.3,21.74,38.62a.77.77,0,0,0,.79.46q5.77,0,11.57,0c.37,0,.45-.1.45-.46q0-34.38,0-68.78c0-.38-.1-.48-.48-.48q-6.48,0-12.94,0c-.47,0-.62.07-.62.59q0,18.7,0,37.41v.5a1.93,1.93,0,0,1-.41-.54q-10.53-18.72-21-37.45a.89.89,0,0,0-.91-.51q-6,0-12,0c-.42,0-.57.08-.57.55q0,34.32,0,68.64c0,.42.1.53.53.53q6.47,0,12.94,0c.46,0,.59-.09.59-.57q0-19.23,0-38.45ZM64.94,63.78q0,17.18,0,34.34c0,.42.08.55.52.55q21.81,0,43.61,0c.4,0,.51-.1.51-.51q0-6.3,0-12.59c0-.78.12-.74-.72-.74q-13.94,0-27.88,0c-.51,0-.61-.14-.6-.62q0-6.77,0-13.51c0-.48.09-.63.6-.63l23.78,0c.45,0,.57-.12.56-.57q0-6.21,0-12.44c0-.47-.12-.59-.59-.59-7.91,0-15.82,0-23.73,0-.7,0-.61.08-.61-.63,0-4.18,0-8.36,0-12.54,0-.49.11-.61.61-.61,9,0,18,0,27,0,.47,0,.59-.12.59-.59,0-4.2,0-8.39,0-12.59,0-.62,0-.62-.64-.62H65.57c-.63,0-.63,0-.63.67ZM17.82,29v0H1.36c-.55,0-.55,0-.29.47q3.62,6.24,7.21,12.51a.92.92,0,0,0,.92.51H31a13.9,13.9,0,0,1,3.52.42c2.85.73,5,2.31,5.88,5.21a10.86,10.86,0,0,1,.08,6.11,7.75,7.75,0,0,1-5.31,5.64,11.94,11.94,0,0,1-3.74.64c-3.92,0-7.84,0-11.76,0-.61,0-.61,0-.31.53q6.21,10.74,12.41,21.5,4.55,7.88,9.09,15.75c.14.24.26.4.59.4,5.08,0,10.16,0,15.23,0,.4,0,.48-.1.26-.42A1.55,1.55,0,0,1,56.8,98Q49.68,85.39,42.55,72.75c-.22-.39-.17-.51.25-.67A20.47,20.47,0,0,0,54.9,60.22a25,25,0,0,0,1.15-14.38A19.31,19.31,0,0,0,48.4,33.77,24.76,24.76,0,0,0,34.12,29C28.69,28.86,23.25,29,17.82,29ZM384.06,70.73q0-13.74,0-27.46c0-.44.11-.53.53-.53,5,0,10,0,14.94,0,.39,0,.48-.11.48-.48q0-6.42,0-12.83c0-.41-.09-.5-.5-.5q-23.19,0-46.38,0c-.39,0-.52.08-.52.5q0,6.39,0,12.78c0,.43.12.53.54.53,4.95,0,9.9,0,14.84,0,.75,0,.66-.09.66.64q0,27.36,0,54.72c0,.45.12.56.56.56q7.19,0,14.35,0c.44,0,.53-.11.53-.53Q384.06,84.43,384.06,70.73ZM18.47,10.45c0,3.3,0,6.6,0,9.9,0,.45.12.54.54.53,1.2,0,2.41,0,3.61,0,.4,0,.48-.12.48-.49,0-2.52,0-5,0-7.56,0-.37.09-.47.46-.46,1.54,0,3.09,0,4.64,0,.39,0,.52.08.52.5,0,2.5,0,5,0,7.51,0,.36,0,.51.47.5,1.23,0,2.47,0,3.71,0,.36,0,.46-.09.46-.46q0-10,0-20c0-.36-.12-.42-.44-.42-1.25,0-2.51,0-3.76,0-.39,0-.45.11-.44.46,0,2.42,0,4.85,0,7.27,0,.37-.07.5-.47.49-1.54,0-3.09,0-4.64,0-.4,0-.5-.1-.5-.51,0-2.4,0-4.81,0-7.22,0-.42-.12-.5-.51-.49C21.38,0,20.17,0,19,0c-.4,0-.51.09-.51.5C18.48,3.82,18.47,7.13,18.47,10.45Zm19.57,0c0,3.32,0,6.63,0,10,0,.35,0,.5.46.5,4.15,0,8.3,0,12.45,0,.33,0,.45-.07.44-.42q0-1.63,0-3.27c0-.4-.12-.48-.49-.48-2.57,0-5.14,0-7.72,0-.39,0-.56-.05-.55-.51,0-1.12,0-2.25,0-3.37,0-.41.1-.51.51-.51,2.18,0,4.36,0,6.54,0,.33,0,.45-.08.44-.43,0-1.07,0-2.15,0-3.22,0-.37-.08-.49-.48-.49-2.18,0-4.36,0-6.54,0-.39,0-.48-.12-.47-.49,0-1,0-2,0-3.07,0-.42.08-.56.53-.55,2.47,0,4.94,0,7.42,0,.37,0,.5-.08.49-.48,0-1.07,0-2.15,0-3.22C51.09.07,51,0,50.62,0Q44.56,0,38.51,0c-.38,0-.48.1-.48.48C38.05,3.8,38,7.11,38,10.43Z"/><path class="cls-2" d="M198,99.68h0A29.85,29.85,0,0,1,188,97.3a22.2,22.2,0,0,1-6.32-4.22,21.24,21.24,0,0,1-6.09-11,27.05,27.05,0,0,1-.62-5.81q0-12.51,0-25a26.15,26.15,0,0,1,2.22-11A19.67,19.67,0,0,1,189,29.66a31.83,31.83,0,0,1,10-1.76,30.89,30.89,0,0,1,12,1.77c8.06,3.07,12.79,8.9,14.25,17.39a26.76,26.76,0,0,1,.34,4.47c0,8.4,0,16.81,0,25.21a23.09,23.09,0,0,1-3.18,11.91,21.78,21.78,0,0,1-13,9.81A31.25,31.25,0,0,1,198,99.68Zm12.16-35.86V51.88a12.78,12.78,0,0,0-.24-2.62,8.58,8.58,0,0,0-6.06-7,11.66,11.66,0,0,0-6.92-.06,8.42,8.42,0,0,0-5.9,5.74,13.16,13.16,0,0,0-.6,4.23V75.47a14.81,14.81,0,0,0,.12,2c.47,3.63,2.15,6.42,5.72,7.75a11.61,11.61,0,0,0,7.39.22,8.29,8.29,0,0,0,5.49-4.69,11.72,11.72,0,0,0,1-4.88Z"/><path class="cls-2" d="M257.52,99.63a30.36,30.36,0,0,1-5.52-.87,23.64,23.64,0,0,1-6.93-3,21.88,21.88,0,0,1-3.32-2.68,21.53,21.53,0,0,1-6-11.55,29.56,29.56,0,0,1-.51-5.63q0-23.19,0-46.38c0-.46.12-.56.56-.56q7.19,0,14.36,0c.42,0,.53.09.53.53q0,23.24,0,46.48a11.39,11.39,0,0,0,1.44,5.85,8.16,8.16,0,0,0,7.31,4.08,8.73,8.73,0,0,0,6.41-2.13,9.33,9.33,0,0,0,2.88-5.66,16,16,0,0,0,.19-2.67q0-23,0-45.9c0-.47.1-.59.57-.59,4.77,0,9.54,0,14.31,0,.42,0,.54.08.54.52,0,15.74,0,31.48,0,47.22a22.91,22.91,0,0,1-5,14.76,21.87,21.87,0,0,1-12,7.39,28.07,28.07,0,0,1-3.39.63,26.11,26.11,0,0,1-3.42.26C259.47,99.73,258.5,99.7,257.52,99.63Z"/><path class="cls-2" d="M140,99.66c-.37,0-.74-.06-1.12-.11a7.78,7.78,0,0,0-1-.11,24.9,24.9,0,0,1-12.68-5.23,21.22,21.22,0,0,1-7.4-12.56,28.59,28.59,0,0,1-.56-5.91q0-12.16,0-24.34A27.33,27.33,0,0,1,119,41.6a19.71,19.71,0,0,1,12.77-12.13,33.37,33.37,0,0,1,11.83-1.56,26.35,26.35,0,0,1,10.62,2.41,20.77,20.77,0,0,1,11.63,14.11A31.16,31.16,0,0,1,166.7,53c0,.36-.19.33-.43.33h-6.54c-2.46,0-4.91,0-7.37,0-.42,0-.56-.08-.54-.52a15.08,15.08,0,0,0-.45-4.54,8.63,8.63,0,0,0-7.66-6.53,11.23,11.23,0,0,0-4.36.23c-3.6,1-5.55,3.47-6.34,7a13.54,13.54,0,0,0-.28,2.91q0,12,0,24.1A11.08,11.08,0,0,0,134,81.29a8.44,8.44,0,0,0,7.72,4.6,10.33,10.33,0,0,0,5.61-1.22,8.73,8.73,0,0,0,4.26-6.17,16.67,16.67,0,0,0,.27-3.93c0-.37.1-.45.46-.45,4.65,0,9.31,0,14,0,.21,0,.45-.1.46.29a30.25,30.25,0,0,1-1.13,9.65c-2.32,7.46-7.33,12.21-14.76,14.48a26.08,26.08,0,0,1-5.8,1A34.36,34.36,0,0,1,140,99.66Z"/><path class="cls-2" d="M0,0C4.56,0,9.11,0,13.67,0c.39,0,.53.07.51.5,0,1.07,0,2.14,0,3.22,0,.35-.11.43-.44.43-1.26,0-2.51,0-3.76,0-.44,0-.58.09-.57.55,0,5.21,0,10.41,0,15.61,0,.47-.1.61-.58.59-1.19,0-2.38,0-3.57,0-.4,0-.51-.11-.51-.51,0-5.21,0-10.41,0-15.61,0-.62,0-.62-.63-.62L0,4.11Z"/><path class="cls-2" d="M309.65,59.14v.51q0,19.23,0,38.45c0,.48-.13.57-.59.57q-6.46,0-12.94,0c-.43,0-.53-.11-.53-.53q0-34.32,0-68.64c0-.47.15-.55.57-.55q6,0,12,0a.89.89,0,0,1,.91.51q10.51,18.74,21,37.45a1.93,1.93,0,0,0,.41.54V67q0-18.71,0-37.41c0-.52.15-.6.62-.59q6.47,0,12.94,0c.38,0,.48.1.48.48q0,34.39,0,68.78c0,.36-.08.46-.45.46q-5.79,0-11.57,0a.77.77,0,0,1-.79-.46Q320.9,78.89,310,59.59l-.27-.46Z"/><path class="cls-3" d="M64.94,63.78V29.63c0-.67,0-.67.63-.67h42.29c.64,0,.64,0,.64.62,0,4.2,0,8.39,0,12.59,0,.47-.12.59-.59.59-9,0-18,0-26.95,0-.5,0-.62.12-.61.61,0,4.18,0,8.36,0,12.54,0,.71-.09.63.61.63,7.91,0,15.82,0,23.73,0,.47,0,.6.12.59.59q0,6.23,0,12.44c0,.45-.11.57-.56.57L81,70.08c-.51,0-.6.15-.6.63q0,6.75,0,13.51c0,.48.09.62.6.62q13.94,0,27.88,0c.84,0,.72,0,.72.74q0,6.3,0,12.59c0,.41-.11.51-.51.51q-21.81,0-43.61,0c-.44,0-.52-.13-.52-.55Q64.94,80.94,64.94,63.78Z"/><path class="cls-3" d="M17.82,29c5.43,0,10.87-.13,16.3,0A24.76,24.76,0,0,1,48.4,33.77a19.31,19.31,0,0,1,7.65,12.07A25,25,0,0,1,54.9,60.22,20.47,20.47,0,0,1,42.8,72.08c-.42.16-.47.28-.25.67Q49.69,85.38,56.8,98a1.55,1.55,0,0,0,.12.22c.22.32.14.43-.26.42-5.07,0-10.15,0-15.23,0-.33,0-.45-.16-.59-.4q-4.53-7.87-9.09-15.75Q25.54,71.76,19.34,61c-.3-.52-.3-.53.31-.53,3.92,0,7.84,0,11.76,0a11.94,11.94,0,0,0,3.74-.64,7.75,7.75,0,0,0,5.31-5.64,10.86,10.86,0,0,0-.08-6.11c-.9-2.9-3-4.48-5.88-5.21A13.9,13.9,0,0,0,31,42.44H9.2a.92.92,0,0,1-.92-.51Q4.7,35.67,1.07,29.43C.81,29,.81,29,1.36,29H17.82Z"/><path class="cls-2" d="M384.06,70.73q0,13.69,0,27.41c0,.42-.09.53-.53.53q-7.17,0-14.35,0c-.44,0-.56-.11-.56-.56q0-27.36,0-54.72c0-.73.09-.64-.66-.64-4.94,0-9.89,0-14.84,0-.42,0-.54-.1-.54-.53q0-6.39,0-12.78c0-.42.13-.5.52-.5q23.19,0,46.38,0c.41,0,.5.09.5.5q0,6.4,0,12.83c0,.37-.09.48-.48.48-5,0-10,0-14.94,0-.42,0-.53.09-.53.53Q384.07,57,384.06,70.73Z"/><path class="cls-2" d="M18.47,10.45c0-3.32,0-6.63,0-9.95,0-.41.11-.51.51-.5,1.2,0,2.41,0,3.61,0,.39,0,.51.07.51.49,0,2.41,0,4.82,0,7.22,0,.41.1.52.5.51,1.55,0,3.1,0,4.64,0,.4,0,.48-.12.47-.49,0-2.42,0-4.85,0-7.27,0-.35,0-.47.44-.46,1.25,0,2.51,0,3.76,0,.32,0,.44.06.44.42q0,10,0,20c0,.37-.1.47-.46.46-1.24,0-2.48,0-3.71,0-.42,0-.47-.14-.47-.5,0-2.5,0-5,0-7.51,0-.42-.13-.51-.52-.5-1.55,0-3.1,0-4.64,0-.37,0-.46.09-.46.46,0,2.52,0,5,0,7.56,0,.37-.08.5-.48.49-1.2,0-2.41,0-3.61,0-.42,0-.55-.08-.54-.53C18.48,17.05,18.47,13.75,18.47,10.45Z"/><path class="cls-2" d="M38,10.43c0-3.32,0-6.63,0-9.95,0-.38.1-.48.48-.48q6.06,0,12.11,0c.35,0,.47.07.46.45,0,1.07,0,2.15,0,3.22,0,.4-.12.48-.49.48-2.48,0-5,0-7.42,0-.45,0-.55.13-.53.55,0,1,0,2.05,0,3.07,0,.37.08.49.47.49,2.18,0,4.36,0,6.54,0,.4,0,.49.12.48.49,0,1.07,0,2.15,0,3.22,0,.35-.11.43-.44.43-2.18,0-4.36,0-6.54,0-.41,0-.52.1-.51.51,0,1.12,0,2.25,0,3.37,0,.46.16.51.55.51,2.58,0,5.15,0,7.72,0,.37,0,.5.08.49.48q0,1.64,0,3.27c0,.35-.11.42-.44.42-4.15,0-8.3,0-12.45,0-.42,0-.46-.15-.46-.5C38.05,17.06,38,13.75,38,10.43Z"/></g></g></svg>